<svg width="20" height="20" viewBox="0 0 20 20" fill="none" xmlns="http://www.w3.org/2000/svg">
<path d="M10 -4.37114e-07C15.5228 -1.95703e-07 20 4.47715 20 10C20 15.5228 15.5228 20 10 20C4.47715 20 -6.78525e-07 15.5228 -4.37114e-07 10C-1.95703e-07 4.47715 4.47715 -6.78525e-07 10 -4.37114e-07Z" fill="#FF3737" fill-opacity="0.78"/>
<path d="M10 1C14.9706 1 19 5.02944 19 10C19 14.9706 14.9706 19 10 19C5.02944 19 0.999999 14.9706 1 10C1 5.02944 5.02944 0.999999 10 1Z" stroke="white" stroke-opacity="0.12" stroke-width="2"/>
<path d="M13 7L10 10M7 13L10 10M10 10L7 7L13 13" stroke="white"/>
</svg>
