<svg width="15" height="17" viewBox="0 0 15 17" fill="none" xmlns="http://www.w3.org/2000/svg">
<path id="Vector" d="M5.38021 4.69209C4.33785 3.35762 4.73152 1.65632 5.55309 0.848198C6.4842 -0.0662541 7.83636 -0.356894 9.0961 0.557558C9.74137 1.02542 10.1213 1.67758 10.2138 2.49279C10.3028 3.29383 10.1436 4.03283 9.60958 4.67259C9.74993 4.73994 9.8629 4.72221 9.97244 4.72399C10.551 4.73107 11.1329 4.67791 11.7097 4.75234C12.6306 4.86931 13.2707 5.40628 13.6969 6.24276C13.9605 6.76201 13.981 7.33974 14.07 7.89976C14.2292 8.88864 14.3918 9.87753 14.5219 10.87C14.6674 11.9652 14.8916 13.048 14.9908 14.1503C15.0918 15.2579 14.3456 16.4311 13.3186 16.8139C12.9746 16.9415 12.6271 17 12.2626 17C9.06871 16.9964 5.87316 16.9858 2.67931 17C1.50857 17.0053 0.555213 16.2787 0.147853 15.2189C-0.0387118 14.7333 -0.0233074 14.2123 0.0554262 13.7001C0.284781 12.1973 0.524405 10.6945 0.743489 9.18991C0.854743 8.42255 0.960863 7.65519 1.09094 6.89315C1.28093 5.78021 2.32501 4.7169 3.5779 4.72399C4.13588 4.72753 4.69386 4.7169 5.25184 4.71158C5.28608 4.71158 5.3186 4.70272 5.38193 4.69563L5.38021 4.69209ZM7.52827 4.61234C8.42686 4.61234 9.1851 3.81839 9.19366 2.8685C9.20222 1.9381 8.40975 1.11048 7.50945 1.11048C6.58347 1.11048 5.77559 1.93278 5.79956 2.88977C5.82352 3.83966 6.5732 4.64424 7.52827 4.61234Z" fill="white"/>
</svg>
